<mxfile host="app.diagrams.net" modified="2021-07-16T06:41:15.443Z" agent="5.0 (Windows NT 10.0; Win64; x64) AppleWebKit/537.36 (KHTML, like Gecko) Chrome/91.0.4472.124 Safari/537.36" etag="iGPy-BpjOCI4f2zIwypz" version="14.8.5" type="github">
  <diagram id="FJT3EdVLjgwq2iVrfuaf" name="Page-1">
    <mxGraphModel dx="868" dy="450" grid="1" gridSize="10" guides="1" tooltips="1" connect="1" arrows="1" fold="1" page="1" pageScale="1" pageWidth="850" pageHeight="1100" math="0" shadow="0">
      <root>
        <mxCell id="0" />
        <mxCell id="1" parent="0" />
        <mxCell id="MxKaTCPz04sXQIFcnDnJ-49" value="" style="rounded=1;whiteSpace=wrap;html=1;" parent="1" vertex="1">
          <mxGeometry x="60" y="110" width="160" height="310" as="geometry" />
        </mxCell>
        <mxCell id="MxKaTCPz04sXQIFcnDnJ-37" value="" style="rounded=1;whiteSpace=wrap;html=1;" parent="1" vertex="1">
          <mxGeometry x="780" y="110" width="180" height="300" as="geometry" />
        </mxCell>
        <mxCell id="MxKaTCPz04sXQIFcnDnJ-27" style="edgeStyle=orthogonalEdgeStyle;rounded=0;orthogonalLoop=1;jettySize=auto;html=1;entryX=0.5;entryY=0;entryDx=0;entryDy=0;" parent="1" source="MxKaTCPz04sXQIFcnDnJ-26" target="MxKaTCPz04sXQIFcnDnJ-24" edge="1">
          <mxGeometry relative="1" as="geometry" />
        </mxCell>
        <mxCell id="FLgo3Fq62j766ZoPxWhK-4" value="" style="edgeStyle=orthogonalEdgeStyle;rounded=0;orthogonalLoop=1;jettySize=auto;html=1;" parent="1" source="MxKaTCPz04sXQIFcnDnJ-26" target="FLgo3Fq62j766ZoPxWhK-3" edge="1">
          <mxGeometry relative="1" as="geometry" />
        </mxCell>
        <mxCell id="MxKaTCPz04sXQIFcnDnJ-26" value="" style="rounded=1;whiteSpace=wrap;html=1;" parent="1" vertex="1">
          <mxGeometry x="365" y="110" width="165" height="310" as="geometry" />
        </mxCell>
        <mxCell id="MxKaTCPz04sXQIFcnDnJ-28" style="edgeStyle=orthogonalEdgeStyle;rounded=0;orthogonalLoop=1;jettySize=auto;html=1;entryX=0.5;entryY=1;entryDx=0;entryDy=0;" parent="1" source="MxKaTCPz04sXQIFcnDnJ-24" target="MxKaTCPz04sXQIFcnDnJ-26" edge="1">
          <mxGeometry relative="1" as="geometry" />
        </mxCell>
        <mxCell id="VrD2kvBC_twunkXz3cL_-8" style="edgeStyle=orthogonalEdgeStyle;rounded=0;orthogonalLoop=1;jettySize=auto;html=1;" parent="1" source="MxKaTCPz04sXQIFcnDnJ-24" edge="1">
          <mxGeometry relative="1" as="geometry">
            <mxPoint x="870" y="410" as="targetPoint" />
          </mxGeometry>
        </mxCell>
        <mxCell id="MxKaTCPz04sXQIFcnDnJ-24" value="" style="rounded=1;whiteSpace=wrap;html=1;" parent="1" vertex="1">
          <mxGeometry x="340" y="500" width="215" height="199" as="geometry" />
        </mxCell>
        <mxCell id="MxKaTCPz04sXQIFcnDnJ-2" value="" style="edgeStyle=orthogonalEdgeStyle;rounded=0;orthogonalLoop=1;jettySize=auto;html=1;" parent="1" source="MxKaTCPz04sXQIFcnDnJ-3" target="MxKaTCPz04sXQIFcnDnJ-9" edge="1">
          <mxGeometry relative="1" as="geometry" />
        </mxCell>
        <mxCell id="MxKaTCPz04sXQIFcnDnJ-3" value="User (publisher)" style="rounded=1;whiteSpace=wrap;html=1;" parent="1" vertex="1">
          <mxGeometry x="82" y="135" width="120" height="60" as="geometry" />
        </mxCell>
        <mxCell id="MxKaTCPz04sXQIFcnDnJ-4" style="edgeStyle=orthogonalEdgeStyle;rounded=0;orthogonalLoop=1;jettySize=auto;html=1;entryX=0.5;entryY=0;entryDx=0;entryDy=0;" parent="1" source="MxKaTCPz04sXQIFcnDnJ-5" target="MxKaTCPz04sXQIFcnDnJ-9" edge="1">
          <mxGeometry relative="1" as="geometry" />
        </mxCell>
        <mxCell id="MxKaTCPz04sXQIFcnDnJ-5" value="User (publisher)" style="rounded=1;whiteSpace=wrap;html=1;" parent="1" vertex="1">
          <mxGeometry x="82" y="225" width="120" height="60" as="geometry" />
        </mxCell>
        <mxCell id="MxKaTCPz04sXQIFcnDnJ-6" style="edgeStyle=orthogonalEdgeStyle;rounded=0;orthogonalLoop=1;jettySize=auto;html=1;entryX=0.5;entryY=0;entryDx=0;entryDy=0;" parent="1" source="MxKaTCPz04sXQIFcnDnJ-7" target="MxKaTCPz04sXQIFcnDnJ-9" edge="1">
          <mxGeometry relative="1" as="geometry" />
        </mxCell>
        <mxCell id="MxKaTCPz04sXQIFcnDnJ-7" value="User (publisher)" style="rounded=1;whiteSpace=wrap;html=1;" parent="1" vertex="1">
          <mxGeometry x="82" y="345" width="120" height="60" as="geometry" />
        </mxCell>
        <mxCell id="MxKaTCPz04sXQIFcnDnJ-8" value="..." style="text;html=1;strokeColor=none;fillColor=none;align=center;verticalAlign=middle;whiteSpace=wrap;rounded=0;rotation=-90;" parent="1" vertex="1">
          <mxGeometry x="122" y="305" width="40" height="20" as="geometry" />
        </mxCell>
        <mxCell id="MxKaTCPz04sXQIFcnDnJ-14" style="edgeStyle=orthogonalEdgeStyle;rounded=0;orthogonalLoop=1;jettySize=auto;html=1;" parent="1" source="MxKaTCPz04sXQIFcnDnJ-9" target="MxKaTCPz04sXQIFcnDnJ-11" edge="1">
          <mxGeometry relative="1" as="geometry" />
        </mxCell>
        <mxCell id="MxKaTCPz04sXQIFcnDnJ-15" style="edgeStyle=orthogonalEdgeStyle;rounded=0;orthogonalLoop=1;jettySize=auto;html=1;" parent="1" source="MxKaTCPz04sXQIFcnDnJ-9" target="MxKaTCPz04sXQIFcnDnJ-12" edge="1">
          <mxGeometry relative="1" as="geometry" />
        </mxCell>
        <mxCell id="MxKaTCPz04sXQIFcnDnJ-16" style="edgeStyle=orthogonalEdgeStyle;rounded=0;orthogonalLoop=1;jettySize=auto;html=1;" parent="1" source="MxKaTCPz04sXQIFcnDnJ-9" target="MxKaTCPz04sXQIFcnDnJ-13" edge="1">
          <mxGeometry relative="1" as="geometry" />
        </mxCell>
        <mxCell id="MxKaTCPz04sXQIFcnDnJ-9" value="LB" style="rounded=1;whiteSpace=wrap;html=1;rotation=-90;" parent="1" vertex="1">
          <mxGeometry x="155" y="225" width="270" height="60" as="geometry" />
        </mxCell>
        <mxCell id="MxKaTCPz04sXQIFcnDnJ-11" value="Streaming Server" style="rounded=1;whiteSpace=wrap;html=1;" parent="1" vertex="1">
          <mxGeometry x="380" y="135" width="120" height="60" as="geometry" />
        </mxCell>
        <mxCell id="MxKaTCPz04sXQIFcnDnJ-12" value="Streaming Server" style="rounded=1;whiteSpace=wrap;html=1;" parent="1" vertex="1">
          <mxGeometry x="380" y="225" width="120" height="60" as="geometry" />
        </mxCell>
        <mxCell id="MxKaTCPz04sXQIFcnDnJ-13" value="Streaming Server" style="rounded=1;whiteSpace=wrap;html=1;" parent="1" vertex="1">
          <mxGeometry x="380" y="345" width="120" height="60" as="geometry" />
        </mxCell>
        <mxCell id="MxKaTCPz04sXQIFcnDnJ-34" style="edgeStyle=orthogonalEdgeStyle;rounded=0;orthogonalLoop=1;jettySize=auto;html=1;entryX=0;entryY=0.5;entryDx=0;entryDy=0;exitX=0.5;exitY=1;exitDx=0;exitDy=0;" parent="1" source="FLgo3Fq62j766ZoPxWhK-3" target="MxKaTCPz04sXQIFcnDnJ-31" edge="1">
          <mxGeometry relative="1" as="geometry">
            <mxPoint x="735" y="245" as="sourcePoint" />
          </mxGeometry>
        </mxCell>
        <mxCell id="MxKaTCPz04sXQIFcnDnJ-35" style="edgeStyle=orthogonalEdgeStyle;rounded=0;orthogonalLoop=1;jettySize=auto;html=1;exitX=0.5;exitY=1;exitDx=0;exitDy=0;" parent="1" source="FLgo3Fq62j766ZoPxWhK-3" target="MxKaTCPz04sXQIFcnDnJ-32" edge="1">
          <mxGeometry relative="1" as="geometry">
            <mxPoint x="735" y="245" as="sourcePoint" />
          </mxGeometry>
        </mxCell>
        <mxCell id="MxKaTCPz04sXQIFcnDnJ-36" style="edgeStyle=orthogonalEdgeStyle;rounded=0;orthogonalLoop=1;jettySize=auto;html=1;entryX=0;entryY=0.5;entryDx=0;entryDy=0;exitX=0.5;exitY=1;exitDx=0;exitDy=0;" parent="1" source="FLgo3Fq62j766ZoPxWhK-3" target="MxKaTCPz04sXQIFcnDnJ-33" edge="1">
          <mxGeometry relative="1" as="geometry">
            <mxPoint x="735" y="245" as="sourcePoint" />
          </mxGeometry>
        </mxCell>
        <mxCell id="MxKaTCPz04sXQIFcnDnJ-22" value="User DB" style="shape=cylinder3;whiteSpace=wrap;html=1;boundedLbl=1;backgroundOutline=1;size=15;" parent="1" vertex="1">
          <mxGeometry x="372.5" y="584.5" width="60" height="80" as="geometry" />
        </mxCell>
        <mxCell id="MxKaTCPz04sXQIFcnDnJ-23" value="User Cache" style="rounded=0;whiteSpace=wrap;html=1;" parent="1" vertex="1">
          <mxGeometry x="372.5" y="534.5" width="60" height="40" as="geometry" />
        </mxCell>
        <mxCell id="MxKaTCPz04sXQIFcnDnJ-29" value="Video meta cache" style="rounded=0;whiteSpace=wrap;html=1;" parent="1" vertex="1">
          <mxGeometry x="470" y="534.5" width="60" height="40" as="geometry" />
        </mxCell>
        <mxCell id="MxKaTCPz04sXQIFcnDnJ-30" value="Video Meta DB" style="shape=cylinder3;whiteSpace=wrap;html=1;boundedLbl=1;backgroundOutline=1;size=15;" parent="1" vertex="1">
          <mxGeometry x="470" y="584.5" width="60" height="80" as="geometry" />
        </mxCell>
        <mxCell id="o_ed_Fmldh7zPdRnSExF-1" style="edgeStyle=orthogonalEdgeStyle;rounded=0;orthogonalLoop=1;jettySize=auto;html=1;entryX=0;entryY=0.5;entryDx=0;entryDy=0;entryPerimeter=0;" edge="1" parent="1" source="MxKaTCPz04sXQIFcnDnJ-31" target="MxKaTCPz04sXQIFcnDnJ-44">
          <mxGeometry relative="1" as="geometry" />
        </mxCell>
        <mxCell id="MxKaTCPz04sXQIFcnDnJ-31" value="Transcoding Server" style="rounded=1;whiteSpace=wrap;html=1;" parent="1" vertex="1">
          <mxGeometry x="810" y="135" width="120" height="60" as="geometry" />
        </mxCell>
        <mxCell id="o_ed_Fmldh7zPdRnSExF-2" style="edgeStyle=orthogonalEdgeStyle;rounded=0;orthogonalLoop=1;jettySize=auto;html=1;entryX=0;entryY=0.5;entryDx=0;entryDy=0;entryPerimeter=0;" edge="1" parent="1" source="MxKaTCPz04sXQIFcnDnJ-32" target="MxKaTCPz04sXQIFcnDnJ-44">
          <mxGeometry relative="1" as="geometry" />
        </mxCell>
        <mxCell id="MxKaTCPz04sXQIFcnDnJ-32" value="Transcoding Server" style="rounded=1;whiteSpace=wrap;html=1;" parent="1" vertex="1">
          <mxGeometry x="810" y="225" width="120" height="60" as="geometry" />
        </mxCell>
        <mxCell id="VrD2kvBC_twunkXz3cL_-7" style="edgeStyle=orthogonalEdgeStyle;rounded=0;orthogonalLoop=1;jettySize=auto;html=1;entryX=1;entryY=0.5;entryDx=0;entryDy=0;" parent="1" source="MxKaTCPz04sXQIFcnDnJ-33" target="MxKaTCPz04sXQIFcnDnJ-24" edge="1">
          <mxGeometry relative="1" as="geometry">
            <Array as="points">
              <mxPoint x="870" y="600" />
              <mxPoint x="704" y="600" />
            </Array>
          </mxGeometry>
        </mxCell>
        <mxCell id="o_ed_Fmldh7zPdRnSExF-3" style="edgeStyle=orthogonalEdgeStyle;rounded=0;orthogonalLoop=1;jettySize=auto;html=1;entryX=0;entryY=0.5;entryDx=0;entryDy=0;entryPerimeter=0;" edge="1" parent="1" source="MxKaTCPz04sXQIFcnDnJ-33" target="MxKaTCPz04sXQIFcnDnJ-44">
          <mxGeometry relative="1" as="geometry" />
        </mxCell>
        <mxCell id="MxKaTCPz04sXQIFcnDnJ-33" value="Transcoding Server" style="rounded=1;whiteSpace=wrap;html=1;" parent="1" vertex="1">
          <mxGeometry x="810" y="345" width="120" height="60" as="geometry" />
        </mxCell>
        <mxCell id="FLgo3Fq62j766ZoPxWhK-19" style="edgeStyle=orthogonalEdgeStyle;rounded=0;orthogonalLoop=1;jettySize=auto;html=1;entryX=0;entryY=0.5;entryDx=0;entryDy=0;" parent="1" source="MxKaTCPz04sXQIFcnDnJ-40" target="FLgo3Fq62j766ZoPxWhK-16" edge="1">
          <mxGeometry relative="1" as="geometry" />
        </mxCell>
        <mxCell id="FLgo3Fq62j766ZoPxWhK-20" style="edgeStyle=orthogonalEdgeStyle;rounded=0;orthogonalLoop=1;jettySize=auto;html=1;entryX=0;entryY=0.5;entryDx=0;entryDy=0;" parent="1" source="MxKaTCPz04sXQIFcnDnJ-40" target="FLgo3Fq62j766ZoPxWhK-17" edge="1">
          <mxGeometry relative="1" as="geometry" />
        </mxCell>
        <mxCell id="FLgo3Fq62j766ZoPxWhK-21" style="edgeStyle=orthogonalEdgeStyle;rounded=0;orthogonalLoop=1;jettySize=auto;html=1;entryX=0;entryY=0.5;entryDx=0;entryDy=0;" parent="1" source="MxKaTCPz04sXQIFcnDnJ-40" target="FLgo3Fq62j766ZoPxWhK-18" edge="1">
          <mxGeometry relative="1" as="geometry" />
        </mxCell>
        <mxCell id="MxKaTCPz04sXQIFcnDnJ-40" value="CDN (ex: cloudfront)" style="whiteSpace=wrap;html=1;rounded=1;" parent="1" vertex="1">
          <mxGeometry x="1200" y="245" width="120" height="60" as="geometry" />
        </mxCell>
        <mxCell id="FLgo3Fq62j766ZoPxWhK-6" style="edgeStyle=orthogonalEdgeStyle;rounded=0;orthogonalLoop=1;jettySize=auto;html=1;" parent="1" source="MxKaTCPz04sXQIFcnDnJ-44" target="MxKaTCPz04sXQIFcnDnJ-40" edge="1">
          <mxGeometry relative="1" as="geometry" />
        </mxCell>
        <mxCell id="MxKaTCPz04sXQIFcnDnJ-44" value="Media Storage" style="shape=cylinder3;whiteSpace=wrap;html=1;boundedLbl=1;backgroundOutline=1;size=15;" parent="1" vertex="1">
          <mxGeometry x="1070" y="235" width="60" height="80" as="geometry" />
        </mxCell>
        <mxCell id="MxKaTCPz04sXQIFcnDnJ-47" value="Media info" style="swimlane;" parent="1" vertex="1">
          <mxGeometry x="1040" y="135" width="120" height="80" as="geometry" />
        </mxCell>
        <mxCell id="MxKaTCPz04sXQIFcnDnJ-48" value="clips by resolutions&lt;br&gt;ex: 480p, 1080p,..." style="text;html=1;align=left;verticalAlign=middle;resizable=0;points=[];autosize=1;strokeColor=none;" parent="MxKaTCPz04sXQIFcnDnJ-47" vertex="1">
          <mxGeometry y="25" width="120" height="30" as="geometry" />
        </mxCell>
        <mxCell id="FLgo3Fq62j766ZoPxWhK-1" value="publisher:&lt;br&gt;1. sw/hw encoder&lt;br&gt;2. webcam" style="text;html=1;strokeColor=none;fillColor=none;align=left;verticalAlign=middle;whiteSpace=wrap;rounded=0;" parent="1" vertex="1">
          <mxGeometry x="60" y="50" width="130" height="30" as="geometry" />
        </mxCell>
        <mxCell id="FLgo3Fq62j766ZoPxWhK-2" value="RTMP" style="text;html=1;strokeColor=none;fillColor=none;align=center;verticalAlign=middle;whiteSpace=wrap;rounded=0;" parent="1" vertex="1">
          <mxGeometry x="230" y="80" width="40" height="20" as="geometry" />
        </mxCell>
        <mxCell id="FLgo3Fq62j766ZoPxWhK-3" value="Task Queue" style="shape=cylinder;whiteSpace=wrap;html=1;boundedLbl=1;backgroundOutline=1;rounded=1;rotation=-90;" parent="1" vertex="1">
          <mxGeometry x="626.25" y="225" width="60" height="80" as="geometry" />
        </mxCell>
        <mxCell id="FLgo3Fq62j766ZoPxWhK-16" value="User View" style="rounded=1;whiteSpace=wrap;html=1;" parent="1" vertex="1">
          <mxGeometry x="1380" y="150" width="120" height="60" as="geometry" />
        </mxCell>
        <mxCell id="FLgo3Fq62j766ZoPxWhK-17" value="User View" style="rounded=1;whiteSpace=wrap;html=1;" parent="1" vertex="1">
          <mxGeometry x="1380" y="240" width="120" height="60" as="geometry" />
        </mxCell>
        <mxCell id="FLgo3Fq62j766ZoPxWhK-18" value="User View" style="rounded=1;whiteSpace=wrap;html=1;" parent="1" vertex="1">
          <mxGeometry x="1380" y="360" width="120" height="60" as="geometry" />
        </mxCell>
      </root>
    </mxGraphModel>
  </diagram>
</mxfile>
